# xmcd CD database file
#
# Track frame offsets:
#	150
#	16818
#	32622
#	50217
#	78533
#	95409
#	117741
#	143833
#	169141
#	187089
#
# Disc length: 2715 seconds
#
# Revision: 0
# Processed by: cddbd v1.5.2PL0 Copyright (c) Steve Scherf et al.
# Submitted via: CDex 1.51
#
DISCID=8a0a990a
DTITLE=Blue Bunch Big Band - Waitin' for Tom
DYEAR=1900
DGENRE=Jazz
TTITLE0=01 - US (Thad Jones)
TTITLE1=02 - Groovin' Hard (Don Menza)
TTITLE2=03 - Granada Smoothie (Mark Taylor)
TTITLE3=04 - Nice-N-Easy Blues (Bob Mintzer)
TTITLE4=05 - Tomorrow (Charles Strouse)
TTITLE5=06 - Papa's Got A Brand New Bag (James Brown)
TTITLE6=07 - Spain (Chick Corea)
TTITLE7=08 - Oodless Of Blues (Steve Wright)
TTITLE8=09 - Just The Way You Are ( Billy Joel)
TTITLE9=10 - By All Means (Sammy Nestico)
EXTD=
EXTT0=
EXTT1=
EXTT2=
EXTT3=
EXTT4=
EXTT5=
EXTT6=
EXTT7=
EXTT8=
EXTT9=
PLAYORDER=
